<?xml version="1.0" encoding="utf-8"?>
<!-- Generator: Adobe Illustrator 24.3.0, SVG Export Plug-In . SVG Version: 6.00 Build 0)  -->
<svg version="1.1" id="Calque_1" xmlns="http://www.w3.org/2000/svg" xmlns:xlink="http://www.w3.org/1999/xlink" x="0px" y="0px"
	 viewBox="210 150 420 300" style="enable-background:new 0 0 841.9 595.3;" xml:space="preserve">
<style type="text/css">
	.st0{fill:#002448;}
	.st1{fill:#28B8CE;}
</style>
<g>
	<path class="st0" d="M493.7,138.3v55.4h-79.1c0,0-28-5.6-28.5,39c-0.6,44.3,0,152.2,0,152.2H433l0.6-74.3h-20.1l-0.6-57.9h80.8
		v191.2H374.2c0,0-57.3-10.4-48.9-73.1l-0.8-159.6c0,0,8.2-68.9,78.8-75.4L493.7,138.3z"/>
	<circle class="st0" cx="259.7" cy="317.4" r="20.7"/>
	<circle class="st0" cx="547.8" cy="317.4" r="20.7"/>
	<path class="st1" d="M479.6,146.7V202h-79.1c0,0-28-5.6-28.5,39c-0.6,44.3,0,152.2,0,152.2h46.9l0.6-74.3h-20.1l-0.6-57.9h80.8
		v191.2H360.1c0,0-57.3-10.4-48.9-73.1l-0.8-159.6c0,0,8.2-68.9,78.8-75.4L479.6,146.7z"/>
</g>
</svg>
